# Blender v2.83.0 OBJ File: ''
# www.blender.org
mtllib meja.mtl
o 2DBox
v -17.341715 6.259175 6.419936
v -17.341717 1.806979 6.419936
v -11.225189 1.806979 16.691389
v -11.225189 6.259175 16.691389
v -16.004463 6.259175 5.623618
v -9.887937 6.259175 15.895071
v -9.887938 1.806979 15.895071
v -16.004463 1.806979 5.623618
vt 0.000500 0.000500
vt 0.000500 0.999500
vt 0.999500 0.999500
vt 0.999500 0.000500
vt 0.000500 0.000500
vt 0.999500 0.000500
vt 0.999500 0.999500
vt 0.000500 0.999500
vn -0.8592 0.0000 0.5116
vn 0.8592 -0.0000 -0.5116
vn 0.0000 1.0000 -0.0000
vn 0.5116 0.0000 0.8592
vn -0.0000 -1.0000 0.0000
vn -0.5116 0.0000 -0.8592
usemtl 01___Default
s 1
f 1/1/1 2/2/1 3/3/1
f 3/3/1 4/4/1 1/1/1
f 5/5/2 6/6/2 7/7/2
f 7/7/2 8/8/2 5/5/2
f 1/1/3 4/4/3 6/6/3
f 6/6/3 5/5/3 1/1/3
f 4/4/4 3/3/4 7/7/4
f 7/7/4 6/6/4 4/4/4
f 3/3/5 2/2/5 8/8/5
f 8/8/5 7/7/5 3/3/5
f 2/2/6 1/1/6 5/5/6
f 5/5/6 8/8/6 2/2/6
