# Blender v2.83.4 OBJ File: ''
# www.blender.org
mtllib PLANE3.mtl
o Plane.002
v 8.297206 1.347177 -9.426875
v 8.297206 1.535361 10.685762
v 8.297206 1.347173 10.685762
v -31.319904 1.347172 20.682207
v -31.319904 1.535366 -19.423323
v -31.319904 1.347178 -19.423323
v -27.510698 1.535366 -19.423323
v -27.510698 1.347178 -19.423323
v -25.841425 0.182899 20.682207
v -0.406300 0.182905 -19.423323
v 8.297206 0.182904 -9.426875
v -26.257324 1.535366 -19.423323
v -26.257324 1.347178 -19.423323
v 6.300576 1.535365 -9.298090
v -24.391582 1.535366 -17.130087
v -24.019115 1.535360 18.388971
v -27.510698 1.535360 20.682207
v -31.319904 1.535360 20.682207
v -31.319904 0.182905 -19.423323
v -27.510698 0.182899 20.682207
v -31.319904 0.182899 20.682207
v 8.078990 0.422393 -11.651294
v 8.297206 0.422393 -9.426875
v 8.078990 0.182904 -11.651294
v 7.435287 0.422393 -13.764171
v 7.435287 0.182904 -13.764171
v 6.398374 0.422394 -15.659558
v 6.398374 0.182905 -15.659558
v 5.020246 0.422394 -17.242414
v 5.020246 0.182905 -17.242414
v 3.370009 0.422394 -18.433365
v 3.370009 0.182905 -18.433365
v 1.530414 0.422394 -19.172691
v 1.530414 0.182905 -19.172691
v -0.406300 0.422394 -19.423323
v 1.530414 1.347178 -19.172691
v -0.406300 1.535366 -19.423323
v 1.530414 1.535366 -19.172691
v 3.370009 1.347178 -18.433365
v 3.370009 1.535366 -18.433365
v 5.020246 1.347178 -17.242414
v 5.020246 1.535366 -17.242414
v 6.398374 1.347178 -15.659558
v 6.398374 1.535365 -15.659558
v 7.435287 1.347177 -13.764171
v 7.435287 1.535365 -13.764171
v 8.078990 1.347177 -11.651294
v 8.078990 1.535365 -11.651294
v 8.297206 1.535365 -9.426875
v -31.319904 0.422388 20.682207
v -31.319904 0.422394 -19.423323
v 8.297206 0.422389 10.685762
v 8.297206 0.182900 10.685762
v -27.510698 0.422394 -19.423323
v -27.510698 0.182905 -19.423323
v -26.257324 0.422394 -19.423323
v -26.257324 0.182905 -19.423323
v -0.406300 1.287865 -19.423323
v 1.530414 1.287865 -19.172691
v 3.370009 1.287865 -18.433365
v 5.020246 1.287865 -17.242414
v 6.398374 1.287864 -15.659558
v 7.435287 1.287864 -13.764171
v 8.078990 1.287864 -11.651294
v 8.297206 1.287863 -9.426875
v -27.510698 1.287865 -19.423323
v -26.257324 1.287865 -19.423323
v -31.260593 1.287865 -19.423323
v 8.297206 1.287860 10.685762
v -31.260593 0.481706 -19.423323
v 8.297206 0.481701 10.685762
v 8.297206 0.481705 -9.426875
v -0.406300 0.481706 -19.423323
v -26.257324 0.481706 -19.423323
v 1.530414 0.481706 -19.172691
v 3.370009 0.481706 -18.433365
v 5.020246 0.481706 -17.242414
v 6.398374 0.481706 -15.659558
v 7.435287 0.481705 -13.764171
v 8.078990 0.481705 -11.651294
v -26.759331 1.535366 -18.560337
v -26.759331 1.535360 19.819221
v 7.341826 1.535365 -11.458046
v 6.754046 1.535365 -13.387365
v 5.807214 1.535365 -15.118091
v 4.548812 1.535366 -16.563435
v 3.041940 1.535366 -17.650921
v 1.362159 1.535366 -18.326019
v -0.448495 1.535366 -18.560337
v 7.545838 1.535361 10.637299
v 7.545838 1.535365 -9.378411
v -25.555212 1.535366 -18.560337
v -27.510698 0.481706 -19.423323
v -0.406300 1.347178 -19.423323
v -27.510698 1.347172 20.682207
v -31.319904 1.535360 20.682207
v -31.319904 1.347172 20.682207
v 8.297206 1.535361 10.685762
v 8.078990 1.347173 12.910181
v 8.297206 1.347173 10.685762
v 8.078990 1.535361 12.910181
v 7.435287 1.347172 15.023057
v 7.435287 1.535360 15.023057
v 6.398374 1.347172 16.918446
v 6.398374 1.535360 16.918446
v 5.020246 1.347172 18.501297
v 5.020246 1.535360 18.501297
v 3.370009 1.347172 19.692249
v 3.370009 1.535360 19.692249
v 1.530414 1.347172 20.431578
v 1.530414 1.535360 20.431578
v -0.406300 1.347172 20.682207
v -25.841425 1.535360 20.682207
v -25.841425 1.347172 20.682207
v -27.510698 0.182899 20.682207
v -31.319904 0.422388 20.682207
v -31.319904 0.182899 20.682207
v 8.297206 0.422389 10.685762
v 8.078990 0.182900 12.910181
v 8.297206 0.182900 10.685762
v 8.078990 0.422389 12.910181
v 7.435287 0.182900 15.023057
v 7.435287 0.422389 15.023057
v 6.398374 0.182899 16.918446
v 6.398374 0.422388 16.918446
v 5.020246 0.182899 18.501297
v 5.020246 0.422388 18.501297
v 3.370009 0.182899 19.692249
v 3.370009 0.422388 19.692249
v 1.530414 0.182899 20.431578
v 1.530414 0.422388 20.431578
v -0.406300 0.182899 20.682207
v -25.841425 0.422388 20.682207
v -25.841425 0.182899 20.682207
v -31.260593 0.481700 20.682207
v -0.406300 1.287859 20.682207
v -25.841425 1.287859 20.682207
v 1.530414 1.287859 20.431578
v 3.370009 1.287859 19.692249
v 5.020246 1.287859 18.501297
v 6.398374 1.287859 16.918446
v 7.435287 1.287859 15.023057
v 8.078990 1.287860 12.910181
v 8.297206 1.287860 10.685762
v -31.260593 1.287859 20.682207
v -27.510698 0.422388 20.682207
v -27.510698 0.481700 20.682207
v 8.078990 0.481701 12.910181
v 8.297206 0.481701 10.685762
v 7.435287 0.481701 15.023057
v 6.398374 0.481700 16.918446
v 5.020246 0.481700 18.501297
v 3.370009 0.481700 19.692249
v 1.530414 0.481700 20.431578
v -0.406300 0.481700 20.682207
v -25.841425 0.481700 20.682207
v 7.341826 1.535361 12.716933
v 7.545838 1.535361 10.637299
v 6.754046 1.535361 14.646253
v 5.807214 1.535360 16.376978
v 4.548812 1.535360 17.822321
v 3.041940 1.535360 18.909805
v 1.362159 1.535360 19.584904
v -0.448495 1.535360 19.819221
v -26.759331 1.535360 19.819221
v -25.155659 1.535360 19.819221
v -0.406300 1.535360 20.682207
v -0.406300 0.422388 20.682207
v -27.510698 1.287859 20.682207
v -27.510698 1.535360 20.682207
v 1.530414 0.182899 20.431578
v -0.406300 0.182899 20.682207
v 3.370009 0.182899 19.692249
v 5.020246 0.182899 18.501297
v 7.435287 0.182900 15.023057
v 6.398374 0.182899 16.918446
v 8.078990 0.182900 12.910181
v -25.514069 1.535366 -17.130087
v -25.514069 1.535360 18.388971
v -0.518428 1.535360 18.388971
v 6.300576 1.535361 10.556978
v 1.083308 1.535360 18.181692
v 2.498223 1.535360 17.613041
v 6.120105 1.535361 12.396659
v 3.767493 1.535360 16.697029
v 4.827472 1.535360 15.479589
v 5.625005 1.535361 14.021765
v 6.120105 1.535365 -11.137772
v -0.518428 1.535366 -17.130087
v 5.625005 1.535365 -12.762877
v 4.827472 1.535365 -14.220701
v 3.767493 1.535365 -15.438143
v 2.498223 1.535366 -16.354156
v 1.083308 1.535366 -16.922804
v 6.120105 1.535361 12.396659
v 6.300576 1.535361 10.556978
v 5.625005 1.535361 14.021765
v 4.827472 1.535360 15.479589
v 3.767493 1.535360 16.697029
v 2.498223 1.535360 17.613041
v 1.083308 1.535360 18.181692
v -0.518428 1.535360 18.388971
v -25.514069 1.535360 18.388971
v -24.019115 1.535360 18.388971
v -31.319904 1.347172 20.682207
v -31.319904 1.535360 20.682207
v -31.319904 0.182899 20.682207
v -27.510698 0.182899 20.682207
v -27.510698 1.535360 20.682207
v -31.319904 0.422388 20.682207
v 8.078990 0.182900 12.910181
v 8.297206 0.182900 10.685762
v 8.297206 1.347173 10.685762
v 8.297206 1.535361 10.685762
v 7.435287 0.182900 15.023057
v 6.398374 0.182899 16.918446
v 5.020246 0.182899 18.501297
v 3.370009 0.182899 19.692249
v 1.530414 0.182899 20.431578
v -0.406300 0.182899 20.682207
v -25.841425 0.182899 20.682207
v 8.297206 0.481701 10.685762
v 8.297206 1.287860 10.685762
v 8.297206 0.422389 10.685762
v -26.759331 1.535360 19.819221
v 7.545838 1.535361 10.637299
v 6.300576 1.535361 10.556978
v 6.120105 1.535361 12.396659
v 5.625005 1.535361 14.021765
v 4.827472 1.535360 15.479589
v 3.767493 1.535360 16.697029
v 2.498223 1.535360 17.613041
v 1.083308 1.535360 18.181692
v -0.518428 1.535360 18.388971
v -24.019115 1.535360 18.388971
v -25.514069 1.535360 18.388971
vt 1.000000 0.733886
vt 1.000000 0.266114
vt 1.000000 0.266114
vt 0.000000 0.000000
vt 0.000000 1.000000
vt 0.000000 1.000000
vt 0.116468 1.000000
vt 0.116468 1.000000
vt 0.167507 0.000000
vt 0.733886 1.000000
vt 1.000000 0.733886
vt 0.154791 1.000000
vt 0.154791 1.000000
vt 0.942430 0.731345
vt 0.212037 0.939216
vt 0.223446 0.060719
vt 0.116468 0.000000
vt 0.000000 0.000000
vt 0.000000 1.000000
vt 0.116468 0.000000
vt 0.000000 0.000000
vt 0.997776 0.793102
vt 1.000000 0.733886
vt 0.997776 0.793102
vt 0.991216 0.849349
vt 0.991216 0.849349
vt 0.980648 0.899805
vt 0.980648 0.899805
vt 0.899805 0.980647
vt 0.899805 0.980647
vt 0.849349 0.991215
vt 0.849349 0.991215
vt 0.793102 0.997776
vt 0.793102 0.997776
vt 0.733886 1.000000
vt 0.793102 0.997776
vt 0.733886 1.000000
vt 0.793102 0.997776
vt 0.849349 0.991215
vt 0.849349 0.991215
vt 0.899805 0.980647
vt 0.899805 0.980647
vt 0.980648 0.899805
vt 0.980648 0.899805
vt 0.991216 0.849349
vt 0.991216 0.849349
vt 0.997776 0.793102
vt 0.997776 0.793102
vt 1.000000 0.733886
vt 0.000000 0.000000
vt 0.000000 1.000000
vt 1.000000 0.266114
vt 1.000000 0.266114
vt 0.116468 1.000000
vt 0.116468 1.000000
vt 0.154791 1.000000
vt 0.154791 1.000000
vt 0.733886 1.000000
vt 0.793102 0.997776
vt 0.849349 0.991215
vt 0.899805 0.980647
vt 0.980648 0.899805
vt 0.991216 0.849349
vt 0.997776 0.793102
vt 1.000000 0.733886
vt 0.116468 1.000000
vt 0.154791 1.000000
vt 0.001814 1.000000
vt 1.000000 0.266114
vt 0.001814 1.000000
vt 1.000000 0.266114
vt 1.000000 0.733886
vt 0.733886 1.000000
vt 0.154791 1.000000
vt 0.793102 0.997776
vt 0.849349 0.991215
vt 0.899805 0.980647
vt 0.980648 0.899805
vt 0.991216 0.849349
vt 0.997776 0.793102
vt 0.139485 0.977032
vt 0.139485 0.022968
vt 0.976887 0.788396
vt 0.969856 0.840227
vt 0.950484 0.891156
vt 0.891226 0.950413
vt 0.840300 0.969781
vt 0.788474 0.976810
vt 0.732978 0.978341
vt 0.978428 0.267112
vt 0.978428 0.732888
vt 0.176323 0.977113
vt 0.116468 1.000000
vt 0.733886 1.000000
vt 0.116468 0.000000
vt 0.000000 0.000000
vt 0.000000 0.000000
vt 1.000000 0.266114
vt 0.997776 0.206898
vt 1.000000 0.266114
vt 0.997776 0.206898
vt 0.991215 0.150651
vt 0.991215 0.150651
vt 0.980647 0.100195
vt 0.980647 0.100195
vt 0.899805 0.019353
vt 0.899805 0.019353
vt 0.849349 0.008785
vt 0.849349 0.008785
vt 0.793102 0.002224
vt 0.793102 0.002224
vt 0.733886 0.000000
vt 0.167507 0.000000
vt 0.167507 0.000000
vt 0.116468 0.000000
vt 0.000000 0.000000
vt 0.000000 0.000000
vt 1.000000 0.266114
vt 0.997776 0.206898
vt 1.000000 0.266114
vt 0.997776 0.206898
vt 0.991216 0.150651
vt 0.991216 0.150651
vt 0.980647 0.100195
vt 0.980647 0.100195
vt 0.899805 0.019353
vt 0.899805 0.019353
vt 0.849349 0.008785
vt 0.849349 0.008785
vt 0.793102 0.002224
vt 0.793102 0.002224
vt 0.733886 0.000000
vt 0.167507 0.000000
vt 0.167507 0.000000
vt 0.001814 0.000000
vt 0.733886 0.000000
vt 0.167507 0.000000
vt 0.793102 0.002224
vt 0.849349 0.008785
vt 0.899805 0.019353
vt 0.980647 0.100195
vt 0.991215 0.150651
vt 0.997776 0.206898
vt 1.000000 0.266114
vt 0.001814 0.000000
vt 0.116468 0.000000
vt 0.116468 0.000000
vt 0.997776 0.206898
vt 1.000000 0.266114
vt 0.991216 0.150651
vt 0.980647 0.100195
vt 0.899805 0.019353
vt 0.849349 0.008785
vt 0.793102 0.002224
vt 0.733886 0.000000
vt 0.167507 0.000000
vt 0.976887 0.211604
vt 0.978428 0.267112
vt 0.969856 0.159773
vt 0.950484 0.108844
vt 0.891226 0.049587
vt 0.840300 0.030219
vt 0.788474 0.023190
vt 0.732978 0.021659
vt 0.139485 0.022968
vt 0.188546 0.022860
vt 0.733886 0.000000
vt 0.733886 0.000000
vt 0.116468 0.000000
vt 0.116468 0.000000
vt 0.793102 0.002224
vt 0.733886 0.000000
vt 0.849349 0.008785
vt 0.899805 0.019353
vt 0.991216 0.150651
vt 0.980647 0.100195
vt 0.997776 0.206898
vt 0.177655 0.939020
vt 0.177655 0.060980
vt 0.731590 0.057830
vt 0.942430 0.268655
vt 0.781074 0.059212
vt 0.825969 0.068113
vt 0.941004 0.219138
vt 0.869989 0.090182
vt 0.910012 0.130203
vt 0.932089 0.174229
vt 0.941004 0.780862
vt 0.731590 0.942170
vt 0.932090 0.825771
vt 0.910012 0.869797
vt 0.869989 0.909818
vt 0.825969 0.931887
vt 0.781074 0.940788
vt 0.941004 0.219138
vt 0.942430 0.268655
vt 0.932089 0.174229
vt 0.910012 0.130203
vt 0.869989 0.090182
vt 0.825969 0.068113
vt 0.781074 0.059212
vt 0.731590 0.057830
vt 0.177655 0.060980
vt 0.223446 0.060719
vn 1.0000 0.0000 0.0000
vn -1.0000 0.0000 0.0000
vn -0.0000 0.0000 -1.0000
vn -0.0000 -1.0000 -0.0000
vn 0.0000 1.0000 0.0000
vn 0.9952 0.0000 -0.0976
vn 0.9566 0.0000 -0.2914
vn 0.8773 0.0000 -0.4799
vn 0.7542 0.0000 -0.6566
vn 0.5852 0.0000 -0.8109
vn 0.3729 0.0000 -0.9279
vn 0.1283 0.0000 -0.9917
vn 0.0000 0.0000 1.0000
vn 0.9952 0.0000 0.0976
vn 0.9566 0.0000 0.2914
vn 0.8773 0.0000 0.4799
vn 0.7542 0.0000 0.6566
vn 0.5852 0.0000 0.8109
vn 0.3729 0.0000 0.9279
vn 0.1283 0.0000 0.9917
vn 0.7542 0.0000 0.6567
usemtl blue_metalic
s 1
f 1/1/1 2/2/1 3/3/1
f 4/4/2 5/5/2 6/6/2
f 6/6/3 7/7/3 8/8/3
f 9/9/4 10/10/4 11/11/4
f 8/8/3 12/12/3 13/13/3
f 14/14/5 15/15/5 16/16/5
f 17/17/5 5/5/5 18/18/5
f 19/19/4 20/20/4 21/21/4
f 11/11/6 22/22/6 23/23/6
f 24/24/7 25/25/7 22/22/7
f 26/26/8 27/27/8 25/25/8
f 28/28/9 29/29/9 27/27/9
f 30/30/10 31/31/10 29/29/10
f 32/32/11 33/33/11 31/31/11
f 34/34/12 35/35/12 33/33/12
f 36/36/12 37/37/12 38/38/12
f 39/39/11 38/38/11 40/40/11
f 41/41/10 40/40/10 42/42/10
f 43/43/9 42/42/9 44/44/9
f 45/45/8 44/44/8 46/46/8
f 47/47/7 46/46/7 48/48/7
f 1/1/6 48/48/6 49/49/6
f 50/50/2 6/6/2 51/51/2
f 11/11/1 52/52/1 53/53/1
f 21/21/2 51/51/2 19/19/2
f 19/19/3 54/54/3 55/55/3
f 55/55/3 56/56/3 57/57/3
f 58/58/12 36/36/12 59/59/12
f 59/59/11 39/39/11 60/60/11
f 60/60/10 41/41/10 61/61/10
f 61/61/9 43/43/9 62/62/9
f 62/62/8 45/45/8 63/63/8
f 63/63/7 47/47/7 64/64/7
f 64/64/6 1/1/6 65/65/6
f 66/66/3 13/13/3 67/67/3
f 68/68/3 8/8/3 66/66/3
f 65/65/1 3/3/1 69/69/1
f 70/70/3 6/6/3 68/68/3
f 71/71/1 23/23/1 72/72/1
f 70/70/3 54/54/3 51/51/3
f 73/73/3 56/56/3 74/74/3
f 75/75/12 35/35/12 73/73/12
f 76/76/11 33/33/11 75/75/11
f 77/77/10 31/31/10 76/76/10
f 78/78/9 29/29/9 77/77/9
f 79/79/8 27/27/8 78/78/8
f 80/80/7 25/25/7 79/79/7
f 72/72/6 22/22/6 80/80/6
f 81/81/5 17/17/5 82/82/5
f 83/83/5 49/49/5 48/48/5
f 84/84/5 48/48/5 46/46/5
f 85/85/5 46/46/5 44/44/5
f 86/86/5 44/44/5 42/42/5
f 87/87/5 42/42/5 40/40/5
f 88/88/5 40/40/5 38/38/5
f 89/89/5 38/38/5 37/37/5
f 90/90/5 49/49/5 91/91/5
f 92/92/5 37/37/5 12/12/5
f 81/81/5 12/12/5 7/7/5
f 74/74/3 54/54/3 93/93/3
f 67/67/3 94/94/3 58/58/3
f 57/57/3 35/35/3 10/10/3
f 13/13/3 37/37/3 94/94/3
f 95/95/13 96/96/13 97/97/13
f 98/98/14 99/99/14 100/100/14
f 101/101/15 102/102/15 99/99/15
f 103/103/16 104/104/16 102/102/16
f 105/105/17 106/106/17 104/104/17
f 107/107/18 108/108/18 106/106/18
f 109/109/19 110/110/19 108/108/19
f 111/111/20 112/112/20 110/110/20
f 112/112/13 113/113/13 114/114/13
f 115/115/13 116/116/13 117/117/13
f 118/118/14 119/119/14 120/120/14
f 121/121/15 122/122/15 119/119/15
f 123/123/16 124/124/16 122/122/16
f 125/125/17 126/126/17 124/124/17
f 127/127/18 128/128/18 126/126/18
f 129/129/19 130/130/19 128/128/19
f 131/131/20 132/132/20 130/130/20
f 132/132/13 133/133/13 134/134/13
f 135/135/13 97/97/13 116/116/13
f 136/136/13 114/114/13 137/137/13
f 138/138/20 112/112/20 136/136/20
f 139/139/19 110/110/19 138/138/19
f 140/140/18 108/108/18 139/139/18
f 141/141/17 106/106/17 140/140/17
f 142/142/16 104/104/16 141/141/16
f 143/143/15 102/102/15 142/142/15
f 144/144/14 99/99/14 143/143/14
f 145/145/13 95/95/13 97/97/13
f 135/135/13 146/146/13 147/147/13
f 148/148/14 118/118/14 149/149/14
f 150/150/15 121/121/15 148/148/15
f 151/151/16 123/123/16 150/150/16
f 152/152/17 125/125/17 151/151/17
f 153/153/18 127/127/18 152/152/18
f 154/154/19 129/129/19 153/153/19
f 155/155/20 131/131/20 154/154/20
f 147/147/13 133/133/13 156/156/13
f 157/157/5 98/98/5 158/158/5
f 159/159/5 101/101/5 157/157/5
f 160/160/5 103/103/5 159/159/5
f 161/161/5 105/105/5 160/160/5
f 162/162/5 107/107/5 161/161/5
f 163/163/5 109/109/5 162/162/5
f 164/164/5 111/111/5 163/163/5
f 165/165/5 113/113/5 166/166/5
f 166/166/5 167/167/5 164/164/5
f 156/156/13 168/168/13 155/155/13
f 137/137/13 95/95/13 169/169/13
f 134/134/13 146/146/13 115/115/13
f 114/114/13 170/170/13 95/95/13
f 1/1/1 49/49/1 2/2/1
f 4/4/2 18/18/2 5/5/2
f 6/6/3 5/5/3 7/7/3
f 9/9/4 20/20/4 57/57/4
f 20/20/4 55/55/4 57/57/4
f 57/57/4 10/10/4 9/9/4
f 10/10/4 34/34/4 32/32/4
f 24/24/4 10/10/4 26/26/4
f 171/171/4 172/172/4 173/173/4
f 172/172/4 9/9/4 53/53/4
f 53/53/4 9/9/4 11/11/4
f 174/174/4 173/173/4 172/172/4
f 175/175/4 176/176/4 172/172/4
f 176/176/4 174/174/4 172/172/4
f 53/53/4 177/177/4 172/172/4
f 177/177/4 175/175/4 172/172/4
f 24/24/4 11/11/4 10/10/4
f 28/28/4 26/26/4 10/10/4
f 32/32/4 30/30/4 10/10/4
f 30/30/4 28/28/4 10/10/4
f 8/8/3 7/7/3 12/12/3
f 178/178/5 179/179/5 15/15/5
f 179/179/5 16/16/5 15/15/5
f 16/16/5 180/180/5 181/181/5
f 180/180/5 182/182/5 183/183/5
f 181/181/5 180/180/5 184/184/5
f 183/183/5 185/185/5 180/180/5
f 185/185/5 186/186/5 180/180/5
f 186/186/5 187/187/5 180/180/5
f 187/187/5 184/184/5 180/180/5
f 181/181/5 14/14/5 16/16/5
f 14/14/5 188/188/5 189/189/5
f 15/15/5 14/14/5 189/189/5
f 188/188/5 190/190/5 189/189/5
f 190/190/5 191/191/5 189/189/5
f 191/191/5 192/192/5 189/189/5
f 192/192/5 193/193/5 189/189/5
f 193/193/5 194/194/5 189/189/5
f 17/17/5 7/7/5 5/5/5
f 19/19/4 55/55/4 20/20/4
f 11/11/6 24/24/6 22/22/6
f 24/24/7 26/26/7 25/25/7
f 26/26/8 28/28/8 27/27/8
f 28/28/9 30/30/9 29/29/9
f 30/30/10 32/32/10 31/31/10
f 32/32/11 34/34/11 33/33/11
f 34/34/12 10/10/12 35/35/12
f 36/36/12 94/94/12 37/37/12
f 39/39/11 36/36/11 38/38/11
f 41/41/10 39/39/10 40/40/10
f 43/43/9 41/41/9 42/42/9
f 45/45/8 43/43/8 44/44/8
f 47/47/7 45/45/7 46/46/7
f 1/1/6 47/47/6 48/48/6
f 50/50/2 4/4/2 6/6/2
f 11/11/1 23/23/1 52/52/1
f 21/21/2 50/50/2 51/51/2
f 19/19/3 51/51/3 54/54/3
f 55/55/3 54/54/3 56/56/3
f 58/58/12 94/94/12 36/36/12
f 59/59/11 36/36/11 39/39/11
f 60/60/10 39/39/10 41/41/10
f 61/61/9 41/41/9 43/43/9
f 62/62/8 43/43/8 45/45/8
f 63/63/7 45/45/7 47/47/7
f 64/64/6 47/47/6 1/1/6
f 66/66/3 8/8/3 13/13/3
f 68/68/3 6/6/3 8/8/3
f 65/65/1 1/1/1 3/3/1
f 70/70/3 51/51/3 6/6/3
f 71/71/1 52/52/1 23/23/1
f 70/70/3 93/93/3 54/54/3
f 73/73/3 35/35/3 56/56/3
f 75/75/12 33/33/12 35/35/12
f 76/76/11 31/31/11 33/33/11
f 77/77/10 29/29/10 31/31/10
f 78/78/9 27/27/9 29/29/9
f 79/79/8 25/25/8 27/27/8
f 80/80/7 22/22/7 25/25/7
f 72/72/6 23/23/6 22/22/6
f 81/81/5 7/7/5 17/17/5
f 83/83/5 91/91/5 49/49/5
f 84/84/5 83/83/5 48/48/5
f 85/85/5 84/84/5 46/46/5
f 86/86/5 85/85/5 44/44/5
f 87/87/5 86/86/5 42/42/5
f 88/88/5 87/87/5 40/40/5
f 89/89/5 88/88/5 38/38/5
f 90/90/5 2/2/5 49/49/5
f 92/92/5 89/89/5 37/37/5
f 81/81/5 92/92/5 12/12/5
f 74/74/3 56/56/3 54/54/3
f 67/67/3 13/13/3 94/94/3
f 57/57/3 56/56/3 35/35/3
f 13/13/3 12/12/3 37/37/3
f 95/95/13 170/170/13 96/96/13
f 98/98/14 101/101/14 99/99/14
f 101/101/15 103/103/15 102/102/15
f 103/103/16 105/105/16 104/104/16
f 105/105/17 107/107/21 106/106/17
f 107/107/18 109/109/18 108/108/18
f 109/109/19 111/111/19 110/110/19
f 111/111/20 167/167/20 112/112/20
f 112/112/13 167/167/13 113/113/13
f 115/115/13 146/146/13 116/116/13
f 118/118/14 121/121/14 119/119/14
f 121/121/15 123/123/15 122/122/15
f 123/123/16 125/125/16 124/124/16
f 125/125/17 127/127/17 126/126/17
f 127/127/18 129/129/18 128/128/18
f 129/129/19 131/131/19 130/130/19
f 131/131/20 168/168/20 132/132/20
f 132/132/13 168/168/13 133/133/13
f 135/135/13 145/145/13 97/97/13
f 136/136/13 112/112/13 114/114/13
f 138/138/20 110/110/20 112/112/20
f 139/139/19 108/108/19 110/110/19
f 140/140/18 106/106/18 108/108/18
f 141/141/17 104/104/17 106/106/17
f 142/142/16 102/102/16 104/104/16
f 143/143/15 99/99/15 102/102/15
f 144/144/14 100/100/14 99/99/14
f 145/145/13 169/169/13 95/95/13
f 135/135/13 116/116/13 146/146/13
f 148/148/14 121/121/14 118/118/14
f 150/150/15 123/123/15 121/121/15
f 151/151/16 125/125/16 123/123/16
f 152/152/17 127/127/17 125/125/17
f 153/153/18 129/129/18 127/127/18
f 154/154/19 131/131/19 129/129/19
f 155/155/20 168/168/20 131/131/20
f 147/147/13 146/146/13 133/133/13
f 157/157/5 101/101/5 98/98/5
f 159/159/5 103/103/5 101/101/5
f 160/160/5 105/105/5 103/103/5
f 161/161/5 107/107/5 105/105/5
f 162/162/5 109/109/5 107/107/5
f 163/163/5 111/111/5 109/109/5
f 164/164/5 167/167/5 111/111/5
f 165/165/5 170/170/5 113/113/5
f 166/166/5 113/113/5 167/167/5
f 156/156/13 133/133/13 168/168/13
f 137/137/13 114/114/13 95/95/13
f 134/134/13 133/133/13 146/146/13
f 114/114/13 113/113/13 170/170/13
usemtl blue_emission
f 178/178/5 82/82/5 179/179/5
f 188/188/5 91/91/5 83/83/5
f 190/190/5 83/83/5 84/84/5
f 191/191/5 84/84/5 85/85/5
f 192/192/5 85/85/5 86/86/5
f 193/193/5 86/86/5 87/87/5
f 194/194/5 87/87/5 88/88/5
f 189/189/5 88/88/5 89/89/5
f 181/181/5 91/91/5 14/14/5
f 15/15/5 89/89/5 92/92/5
f 178/178/5 92/92/5 81/81/5
f 195/195/5 158/158/5 196/196/5
f 197/197/5 157/157/5 195/195/5
f 198/198/5 159/159/5 197/197/5
f 199/199/5 160/160/5 198/198/5
f 200/200/5 161/161/5 199/199/5
f 201/201/5 162/162/5 200/200/5
f 202/202/5 163/163/5 201/201/5
f 203/203/5 166/166/5 204/204/5
f 204/204/5 164/164/5 202/202/5
f 178/178/5 81/81/5 82/82/5
f 188/188/5 14/14/5 91/91/5
f 190/190/5 188/188/5 83/83/5
f 191/191/5 190/190/5 84/84/5
f 192/192/5 191/191/5 85/85/5
f 193/193/5 192/192/5 86/86/5
f 194/194/5 193/193/5 87/87/5
f 189/189/5 194/194/5 88/88/5
f 181/181/5 90/90/5 91/91/5
f 15/15/5 189/189/5 89/89/5
f 178/178/5 15/15/5 92/92/5
f 195/195/5 157/157/5 158/158/5
f 197/197/5 159/159/5 157/157/5
f 198/198/5 160/160/5 159/159/5
f 199/199/5 161/161/5 160/160/5
f 200/200/5 162/162/5 161/161/5
f 201/201/5 163/163/5 162/162/5
f 202/202/5 164/164/5 163/163/5
f 203/203/5 165/165/5 166/166/5
f 204/204/5 166/166/5 164/164/5
usemtl orange_emission
f 93/93/3 67/67/3 74/74/3
f 70/70/3 66/66/3 93/93/3
f 72/72/1 69/69/1 71/71/1
f 75/75/12 58/58/12 59/59/12
f 76/76/11 59/59/11 60/60/11
f 77/77/10 60/60/10 61/61/10
f 78/78/9 61/61/9 62/62/9
f 79/79/8 62/62/8 63/63/8
f 80/80/7 63/63/7 64/64/7
f 72/72/6 64/64/6 65/65/6
f 74/74/3 58/58/3 73/73/3
f 155/155/13 137/137/13 156/156/13
f 138/138/20 155/155/20 154/154/20
f 139/139/19 154/154/19 153/153/19
f 140/140/18 153/153/18 152/152/18
f 141/141/17 152/152/17 151/151/17
f 142/142/16 151/151/16 150/150/16
f 143/143/15 150/150/15 148/148/15
f 144/144/14 148/148/14 149/149/14
f 147/147/13 145/145/13 135/135/13
f 156/156/13 169/169/13 147/147/13
f 93/93/3 66/66/3 67/67/3
f 70/70/3 68/68/3 66/66/3
f 72/72/1 65/65/1 69/69/1
f 75/75/12 73/73/12 58/58/12
f 76/76/11 75/75/11 59/59/11
f 77/77/10 76/76/10 60/60/10
f 78/78/9 77/77/9 61/61/9
f 79/79/8 78/78/8 62/62/8
f 80/80/7 79/79/7 63/63/7
f 72/72/6 80/80/6 64/64/6
f 74/74/3 67/67/3 58/58/3
f 155/155/13 136/136/13 137/137/13
f 138/138/20 136/136/20 155/155/20
f 139/139/19 138/138/19 154/154/19
f 140/140/18 139/139/18 153/153/18
f 141/141/17 140/140/17 152/152/17
f 142/142/16 141/141/16 151/151/16
f 143/143/15 142/142/15 150/150/15
f 144/144/14 143/143/14 148/148/14
f 147/147/13 169/169/13 145/145/13
f 156/156/13 137/137/13 169/169/13
l 234 235
l 208 221
l 226 227
l 225 236
l 235 236
l 233 234
l 232 233
l 231 232
l 230 231
l 229 230
l 228 229
l 227 228
l 214 226
l 209 225
l 222 224
l 223 213
l 212 224
l 207 210
l 222 223
l 221 220
l 220 219
l 219 218
l 218 217
l 217 216
l 216 215
l 215 211
l 213 214
l 211 212
l 210 205
l 206 209
l 207 208
l 205 206
