# Blender v2.83.4 OBJ File: ''
# www.blender.org
mtllib PLANE3.mtl
o Cube
v 1.000000 1.000000 -1.000000
v 1.000000 -1.000000 -1.000000
v 1.000000 1.000000 1.000000
v 1.000000 -1.000000 1.000000
v -1.000000 1.000000 -1.000000
v -1.000000 -1.000000 -1.000000
v -1.000000 1.000000 1.000000
v -1.000000 -1.000000 1.000000
vt 0.625000 0.500000
vt 0.875000 0.500000
vt 0.875000 0.750000
vt 0.625000 0.750000
vt 0.375000 0.750000
vt 0.625000 1.000000
vt 0.375000 1.000000
vt 0.375000 0.000000
vt 0.625000 0.000000
vt 0.625000 0.250000
vt 0.375000 0.250000
vt 0.125000 0.500000
vt 0.375000 0.500000
vt 0.125000 0.750000
vn 0.0000 1.0000 0.0000
vn 0.0000 0.0000 1.0000
vn -1.0000 0.0000 0.0000
vn 0.0000 -1.0000 0.0000
vn 1.0000 0.0000 0.0000
vn 0.0000 0.0000 -1.0000
usemtl Material
s off
f 1/1/1 5/2/1 7/3/1 3/4/1
f 4/5/2 3/4/2 7/6/2 8/7/2
f 8/8/3 7/9/3 5/10/3 6/11/3
f 6/12/4 2/13/4 4/5/4 8/14/4
f 2/13/5 1/1/5 3/4/5 4/5/5
f 6/11/6 5/10/6 1/1/6 2/13/6
o Plane.002
v 8.297206 1.347177 -9.426875
v 8.297206 1.535361 10.685762
v 8.297206 1.347173 10.685762
v -31.319904 1.347172 20.682207
v -31.319904 1.535366 -19.423323
v -31.319904 1.347178 -19.423323
v -27.510698 1.535366 -19.423323
v -27.510698 1.347178 -19.423323
v -25.841425 0.182899 20.682207
v -0.406300 0.182905 -19.423323
v 8.297206 0.182904 -9.426875
v -26.257324 1.535366 -19.423323
v -26.257324 1.347178 -19.423323
v 6.300576 1.535365 -9.298090
v -24.391582 1.535366 -17.130087
v -24.019115 1.535360 18.388971
v -27.510698 1.535360 20.682207
v -31.319904 1.535360 20.682207
v -31.319904 0.182905 -19.423323
v -27.510698 0.182899 20.682207
v -31.319904 0.182899 20.682207
v 8.078990 0.422393 -11.651294
v 8.297206 0.422393 -9.426875
v 8.078990 0.182904 -11.651294
v 7.435287 0.422393 -13.764171
v 7.435287 0.182904 -13.764171
v 6.398374 0.422394 -15.659558
v 6.398374 0.182905 -15.659558
v 5.020246 0.422394 -17.242414
v 5.020246 0.182905 -17.242414
v 3.370009 0.422394 -18.433365
v 3.370009 0.182905 -18.433365
v 1.530414 0.422394 -19.172691
v 1.530414 0.182905 -19.172691
v -0.406300 0.422394 -19.423323
v 1.530414 1.347178 -19.172691
v -0.406300 1.535366 -19.423323
v 1.530414 1.535366 -19.172691
v 3.370009 1.347178 -18.433365
v 3.370009 1.535366 -18.433365
v 5.020246 1.347178 -17.242414
v 5.020246 1.535366 -17.242414
v 6.398374 1.347178 -15.659558
v 6.398374 1.535365 -15.659558
v 7.435287 1.347177 -13.764171
v 7.435287 1.535365 -13.764171
v 8.078990 1.347177 -11.651294
v 8.078990 1.535365 -11.651294
v 8.297206 1.535365 -9.426875
v -31.319904 0.422388 20.682207
v -31.319904 0.422394 -19.423323
v 8.297206 0.422389 10.685762
v 8.297206 0.182900 10.685762
v -27.510698 0.422394 -19.423323
v -27.510698 0.182905 -19.423323
v -26.257324 0.422394 -19.423323
v -26.257324 0.182905 -19.423323
v -0.406300 1.287865 -19.423323
v 1.530414 1.287865 -19.172691
v 3.370009 1.287865 -18.433365
v 5.020246 1.287865 -17.242414
v 6.398374 1.287864 -15.659558
v 7.435287 1.287864 -13.764171
v 8.078990 1.287864 -11.651294
v 8.297206 1.287863 -9.426875
v -27.510698 1.287865 -19.423323
v -26.257324 1.287865 -19.423323
v -31.260593 1.287865 -19.423323
v 8.297206 1.287860 10.685762
v -31.260593 0.481706 -19.423323
v 8.297206 0.481701 10.685762
v 8.297206 0.481705 -9.426875
v -0.406300 0.481706 -19.423323
v -26.257324 0.481706 -19.423323
v 1.530414 0.481706 -19.172691
v 3.370009 0.481706 -18.433365
v 5.020246 0.481706 -17.242414
v 6.398374 0.481706 -15.659558
v 7.435287 0.481705 -13.764171
v 8.078990 0.481705 -11.651294
v -26.759331 1.535366 -18.560337
v -26.759331 1.535360 19.819221
v 7.341826 1.535365 -11.458046
v 6.754046 1.535365 -13.387365
v 5.807214 1.535365 -15.118091
v 4.548812 1.535366 -16.563435
v 3.041940 1.535366 -17.650921
v 1.362159 1.535366 -18.326019
v -0.448495 1.535366 -18.560337
v 7.545838 1.535361 10.637299
v 7.545838 1.535365 -9.378411
v -25.555212 1.535366 -18.560337
v -27.510698 0.481706 -19.423323
v -0.406300 1.347178 -19.423323
v -27.510698 1.347172 20.682207
v -31.319904 1.535360 20.682207
v -31.319904 1.347172 20.682207
v 8.297206 1.535361 10.685762
v 8.078990 1.347173 12.910181
v 8.297206 1.347173 10.685762
v 8.078990 1.535361 12.910181
v 7.435287 1.347172 15.023057
v 7.435287 1.535360 15.023057
v 6.398374 1.347172 16.918446
v 6.398374 1.535360 16.918446
v 5.020246 1.347172 18.501297
v 5.020246 1.535360 18.501297
v 3.370009 1.347172 19.692249
v 3.370009 1.535360 19.692249
v 1.530414 1.347172 20.431578
v 1.530414 1.535360 20.431578
v -0.406300 1.347172 20.682207
v -25.841425 1.535360 20.682207
v -25.841425 1.347172 20.682207
v -27.510698 0.182899 20.682207
v -31.319904 0.422388 20.682207
v -31.319904 0.182899 20.682207
v 8.297206 0.422389 10.685762
v 8.078990 0.182900 12.910181
v 8.297206 0.182900 10.685762
v 8.078990 0.422389 12.910181
v 7.435287 0.182900 15.023057
v 7.435287 0.422389 15.023057
v 6.398374 0.182899 16.918446
v 6.398374 0.422388 16.918446
v 5.020246 0.182899 18.501297
v 5.020246 0.422388 18.501297
v 3.370009 0.182899 19.692249
v 3.370009 0.422388 19.692249
v 1.530414 0.182899 20.431578
v 1.530414 0.422388 20.431578
v -0.406300 0.182899 20.682207
v -25.841425 0.422388 20.682207
v -25.841425 0.182899 20.682207
v -31.260593 0.481700 20.682207
v -0.406300 1.287859 20.682207
v -25.841425 1.287859 20.682207
v 1.530414 1.287859 20.431578
v 3.370009 1.287859 19.692249
v 5.020246 1.287859 18.501297
v 6.398374 1.287859 16.918446
v 7.435287 1.287859 15.023057
v 8.078990 1.287860 12.910181
v 8.297206 1.287860 10.685762
v -31.260593 1.287859 20.682207
v -27.510698 0.422388 20.682207
v -27.510698 0.481700 20.682207
v 8.078990 0.481701 12.910181
v 8.297206 0.481701 10.685762
v 7.435287 0.481701 15.023057
v 6.398374 0.481700 16.918446
v 5.020246 0.481700 18.501297
v 3.370009 0.481700 19.692249
v 1.530414 0.481700 20.431578
v -0.406300 0.481700 20.682207
v -25.841425 0.481700 20.682207
v 7.341826 1.535361 12.716933
v 7.545838 1.535361 10.637299
v 6.754046 1.535361 14.646253
v 5.807214 1.535360 16.376978
v 4.548812 1.535360 17.822321
v 3.041940 1.535360 18.909805
v 1.362159 1.535360 19.584904
v -0.448495 1.535360 19.819221
v -26.759331 1.535360 19.819221
v -25.155659 1.535360 19.819221
v -0.406300 1.535360 20.682207
v -0.406300 0.422388 20.682207
v -27.510698 1.287859 20.682207
v -27.510698 1.535360 20.682207
v 1.530414 0.182899 20.431578
v -0.406300 0.182899 20.682207
v 3.370009 0.182899 19.692249
v 5.020246 0.182899 18.501297
v 7.435287 0.182900 15.023057
v 6.398374 0.182899 16.918446
v 8.078990 0.182900 12.910181
v -25.514069 1.535366 -17.130087
v -25.514069 1.535360 18.388971
v -0.518428 1.535360 18.388971
v 6.300576 1.535361 10.556978
v 1.083308 1.535360 18.181692
v 2.498223 1.535360 17.613041
v 6.120105 1.535361 12.396659
v 3.767493 1.535360 16.697029
v 4.827472 1.535360 15.479589
v 5.625005 1.535361 14.021765
v 6.120105 1.535365 -11.137772
v -0.518428 1.535366 -17.130087
v 5.625005 1.535365 -12.762877
v 4.827472 1.535365 -14.220701
v 3.767493 1.535365 -15.438143
v 2.498223 1.535366 -16.354156
v 1.083308 1.535366 -16.922804
v 6.120105 1.535361 12.396659
v 6.300576 1.535361 10.556978
v 5.625005 1.535361 14.021765
v 4.827472 1.535360 15.479589
v 3.767493 1.535360 16.697029
v 2.498223 1.535360 17.613041
v 1.083308 1.535360 18.181692
v -0.518428 1.535360 18.388971
v -25.514069 1.535360 18.388971
v -24.019115 1.535360 18.388971
v -31.319904 1.347172 20.682207
v -31.319904 1.535360 20.682207
v -31.319904 0.182899 20.682207
v -27.510698 0.182899 20.682207
v -27.510698 1.535360 20.682207
v -31.319904 0.422388 20.682207
v 8.078990 0.182900 12.910181
v 8.297206 0.182900 10.685762
v 8.297206 1.347173 10.685762
v 8.297206 1.535361 10.685762
v 7.435287 0.182900 15.023057
v 6.398374 0.182899 16.918446
v 5.020246 0.182899 18.501297
v 3.370009 0.182899 19.692249
v 1.530414 0.182899 20.431578
v -0.406300 0.182899 20.682207
v -25.841425 0.182899 20.682207
v 8.297206 0.481701 10.685762
v 8.297206 1.287860 10.685762
v 8.297206 0.422389 10.685762
v -26.759331 1.535360 19.819221
v 7.545838 1.535361 10.637299
v 6.300576 1.535361 10.556978
v 6.120105 1.535361 12.396659
v 5.625005 1.535361 14.021765
v 4.827472 1.535360 15.479589
v 3.767493 1.535360 16.697029
v 2.498223 1.535360 17.613041
v 1.083308 1.535360 18.181692
v -0.518428 1.535360 18.388971
v -24.019115 1.535360 18.388971
v -25.514069 1.535360 18.388971
vt 1.000000 0.733886
vt 1.000000 0.266114
vt 1.000000 0.266114
vt 0.000000 0.000000
vt 0.000000 1.000000
vt 0.000000 1.000000
vt 0.116468 1.000000
vt 0.116468 1.000000
vt 0.167507 0.000000
vt 0.733886 1.000000
vt 1.000000 0.733886
vt 0.154791 1.000000
vt 0.154791 1.000000
vt 0.942430 0.731345
vt 0.212037 0.939216
vt 0.223446 0.060719
vt 0.116468 0.000000
vt 0.000000 0.000000
vt 0.000000 1.000000
vt 0.116468 0.000000
vt 0.000000 0.000000
vt 0.997776 0.793102
vt 1.000000 0.733886
vt 0.997776 0.793102
vt 0.991216 0.849349
vt 0.991216 0.849349
vt 0.980648 0.899805
vt 0.980648 0.899805
vt 0.899805 0.980647
vt 0.899805 0.980647
vt 0.849349 0.991215
vt 0.849349 0.991215
vt 0.793102 0.997776
vt 0.793102 0.997776
vt 0.733886 1.000000
vt 0.793102 0.997776
vt 0.733886 1.000000
vt 0.793102 0.997776
vt 0.849349 0.991215
vt 0.849349 0.991215
vt 0.899805 0.980647
vt 0.899805 0.980647
vt 0.980648 0.899805
vt 0.980648 0.899805
vt 0.991216 0.849349
vt 0.991216 0.849349
vt 0.997776 0.793102
vt 0.997776 0.793102
vt 1.000000 0.733886
vt 0.000000 0.000000
vt 0.000000 1.000000
vt 1.000000 0.266114
vt 1.000000 0.266114
vt 0.116468 1.000000
vt 0.116468 1.000000
vt 0.154791 1.000000
vt 0.154791 1.000000
vt 0.733886 1.000000
vt 0.793102 0.997776
vt 0.849349 0.991215
vt 0.899805 0.980647
vt 0.980648 0.899805
vt 0.991216 0.849349
vt 0.997776 0.793102
vt 1.000000 0.733886
vt 0.116468 1.000000
vt 0.154791 1.000000
vt 0.001814 1.000000
vt 1.000000 0.266114
vt 0.001814 1.000000
vt 1.000000 0.266114
vt 1.000000 0.733886
vt 0.733886 1.000000
vt 0.154791 1.000000
vt 0.793102 0.997776
vt 0.849349 0.991215
vt 0.899805 0.980647
vt 0.980648 0.899805
vt 0.991216 0.849349
vt 0.997776 0.793102
vt 0.139485 0.977032
vt 0.139485 0.022968
vt 0.976887 0.788396
vt 0.969856 0.840227
vt 0.950484 0.891156
vt 0.891226 0.950413
vt 0.840300 0.969781
vt 0.788474 0.976810
vt 0.732978 0.978341
vt 0.978428 0.267112
vt 0.978428 0.732888
vt 0.176323 0.977113
vt 0.116468 1.000000
vt 0.733886 1.000000
vt 0.116468 0.000000
vt 0.000000 0.000000
vt 0.000000 0.000000
vt 1.000000 0.266114
vt 0.997776 0.206898
vt 1.000000 0.266114
vt 0.997776 0.206898
vt 0.991215 0.150651
vt 0.991215 0.150651
vt 0.980647 0.100195
vt 0.980647 0.100195
vt 0.899805 0.019353
vt 0.899805 0.019353
vt 0.849349 0.008785
vt 0.849349 0.008785
vt 0.793102 0.002224
vt 0.793102 0.002224
vt 0.733886 0.000000
vt 0.167507 0.000000
vt 0.167507 0.000000
vt 0.116468 0.000000
vt 0.000000 0.000000
vt 0.000000 0.000000
vt 1.000000 0.266114
vt 0.997776 0.206898
vt 1.000000 0.266114
vt 0.997776 0.206898
vt 0.991216 0.150651
vt 0.991216 0.150651
vt 0.980647 0.100195
vt 0.980647 0.100195
vt 0.899805 0.019353
vt 0.899805 0.019353
vt 0.849349 0.008785
vt 0.849349 0.008785
vt 0.793102 0.002224
vt 0.793102 0.002224
vt 0.733886 0.000000
vt 0.167507 0.000000
vt 0.167507 0.000000
vt 0.001814 0.000000
vt 0.733886 0.000000
vt 0.167507 0.000000
vt 0.793102 0.002224
vt 0.849349 0.008785
vt 0.899805 0.019353
vt 0.980647 0.100195
vt 0.991215 0.150651
vt 0.997776 0.206898
vt 1.000000 0.266114
vt 0.001814 0.000000
vt 0.116468 0.000000
vt 0.116468 0.000000
vt 0.997776 0.206898
vt 1.000000 0.266114
vt 0.991216 0.150651
vt 0.980647 0.100195
vt 0.899805 0.019353
vt 0.849349 0.008785
vt 0.793102 0.002224
vt 0.733886 0.000000
vt 0.167507 0.000000
vt 0.976887 0.211604
vt 0.978428 0.267112
vt 0.969856 0.159773
vt 0.950484 0.108844
vt 0.891226 0.049587
vt 0.840300 0.030219
vt 0.788474 0.023190
vt 0.732978 0.021659
vt 0.139485 0.022968
vt 0.188546 0.022860
vt 0.733886 0.000000
vt 0.733886 0.000000
vt 0.116468 0.000000
vt 0.116468 0.000000
vt 0.793102 0.002224
vt 0.733886 0.000000
vt 0.849349 0.008785
vt 0.899805 0.019353
vt 0.991216 0.150651
vt 0.980647 0.100195
vt 0.997776 0.206898
vt 0.177655 0.939020
vt 0.177655 0.060980
vt 0.731590 0.057830
vt 0.942430 0.268655
vt 0.781074 0.059212
vt 0.825969 0.068113
vt 0.941004 0.219138
vt 0.869989 0.090182
vt 0.910012 0.130203
vt 0.932089 0.174229
vt 0.941004 0.780862
vt 0.731590 0.942170
vt 0.932090 0.825771
vt 0.910012 0.869797
vt 0.869989 0.909818
vt 0.825969 0.931887
vt 0.781074 0.940788
vt 0.941004 0.219138
vt 0.942430 0.268655
vt 0.932089 0.174229
vt 0.910012 0.130203
vt 0.869989 0.090182
vt 0.825969 0.068113
vt 0.781074 0.059212
vt 0.731590 0.057830
vt 0.177655 0.060980
vt 0.223446 0.060719
vn 1.0000 0.0000 0.0000
vn -1.0000 0.0000 0.0000
vn -0.0000 0.0000 -1.0000
vn -0.0000 -1.0000 -0.0000
vn 0.0000 1.0000 0.0000
vn 0.9952 0.0000 -0.0976
vn 0.9566 0.0000 -0.2914
vn 0.8773 0.0000 -0.4799
vn 0.7542 0.0000 -0.6566
vn 0.5852 0.0000 -0.8109
vn 0.3729 0.0000 -0.9279
vn 0.1283 0.0000 -0.9917
vn 0.0000 0.0000 1.0000
vn 0.9952 0.0000 0.0976
vn 0.9566 0.0000 0.2914
vn 0.8773 0.0000 0.4799
vn 0.7542 0.0000 0.6566
vn 0.5852 0.0000 0.8109
vn 0.3729 0.0000 0.9279
vn 0.1283 0.0000 0.9917
vn 0.7542 0.0000 0.6567
usemtl blue_metalic
s 1
f 9/15/7 10/16/7 11/17/7
f 12/18/8 13/19/8 14/20/8
f 14/20/9 15/21/9 16/22/9
f 17/23/10 18/24/10 19/25/10
f 16/22/9 20/26/9 21/27/9
f 22/28/11 23/29/11 24/30/11
f 25/31/11 13/19/11 26/32/11
f 27/33/10 28/34/10 29/35/10
f 19/25/12 30/36/12 31/37/12
f 32/38/13 33/39/13 30/36/13
f 34/40/14 35/41/14 33/39/14
f 36/42/15 37/43/15 35/41/15
f 38/44/16 39/45/16 37/43/16
f 40/46/17 41/47/17 39/45/17
f 42/48/18 43/49/18 41/47/18
f 44/50/18 45/51/18 46/52/18
f 47/53/17 46/52/17 48/54/17
f 49/55/16 48/54/16 50/56/16
f 51/57/15 50/56/15 52/58/15
f 53/59/14 52/58/14 54/60/14
f 55/61/13 54/60/13 56/62/13
f 9/15/12 56/62/12 57/63/12
f 58/64/8 14/20/8 59/65/8
f 19/25/7 60/66/7 61/67/7
f 29/35/8 59/65/8 27/33/8
f 27/33/9 62/68/9 63/69/9
f 63/69/9 64/70/9 65/71/9
f 66/72/18 44/50/18 67/73/18
f 67/73/17 47/53/17 68/74/17
f 68/74/16 49/55/16 69/75/16
f 69/75/15 51/57/15 70/76/15
f 70/76/14 53/59/14 71/77/14
f 71/77/13 55/61/13 72/78/13
f 72/78/12 9/15/12 73/79/12
f 74/80/9 21/27/9 75/81/9
f 76/82/9 16/22/9 74/80/9
f 73/79/7 11/17/7 77/83/7
f 78/84/9 14/20/9 76/82/9
f 79/85/7 31/37/7 80/86/7
f 78/84/9 62/68/9 59/65/9
f 81/87/9 64/70/9 82/88/9
f 83/89/18 43/49/18 81/87/18
f 84/90/17 41/47/17 83/89/17
f 85/91/16 39/45/16 84/90/16
f 86/92/15 37/43/15 85/91/15
f 87/93/14 35/41/14 86/92/14
f 88/94/13 33/39/13 87/93/13
f 80/86/12 30/36/12 88/94/12
f 89/95/11 25/31/11 90/96/11
f 91/97/11 57/63/11 56/62/11
f 92/98/11 56/62/11 54/60/11
f 93/99/11 54/60/11 52/58/11
f 94/100/11 52/58/11 50/56/11
f 95/101/11 50/56/11 48/54/11
f 96/102/11 48/54/11 46/52/11
f 97/103/11 46/52/11 45/51/11
f 98/104/11 57/63/11 99/105/11
f 100/106/11 45/51/11 20/26/11
f 89/95/11 20/26/11 15/21/11
f 82/88/9 62/68/9 101/107/9
f 75/81/9 102/108/9 66/72/9
f 65/71/9 43/49/9 18/24/9
f 21/27/9 45/51/9 102/108/9
f 103/109/19 104/110/19 105/111/19
f 106/112/20 107/113/20 108/114/20
f 109/115/21 110/116/21 107/113/21
f 111/117/22 112/118/22 110/116/22
f 113/119/23 114/120/23 112/118/23
f 115/121/24 116/122/24 114/120/24
f 117/123/25 118/124/25 116/122/25
f 119/125/26 120/126/26 118/124/26
f 120/126/19 121/127/19 122/128/19
f 123/129/19 124/130/19 125/131/19
f 126/132/20 127/133/20 128/134/20
f 129/135/21 130/136/21 127/133/21
f 131/137/22 132/138/22 130/136/22
f 133/139/23 134/140/23 132/138/23
f 135/141/24 136/142/24 134/140/24
f 137/143/25 138/144/25 136/142/25
f 139/145/26 140/146/26 138/144/26
f 140/146/19 141/147/19 142/148/19
f 143/149/19 105/111/19 124/130/19
f 144/150/19 122/128/19 145/151/19
f 146/152/26 120/126/26 144/150/26
f 147/153/25 118/124/25 146/152/25
f 148/154/24 116/122/24 147/153/24
f 149/155/23 114/120/23 148/154/23
f 150/156/22 112/118/22 149/155/22
f 151/157/21 110/116/21 150/156/21
f 152/158/20 107/113/20 151/157/20
f 153/159/19 103/109/19 105/111/19
f 143/149/19 154/160/19 155/161/19
f 156/162/20 126/132/20 157/163/20
f 158/164/21 129/135/21 156/162/21
f 159/165/22 131/137/22 158/164/22
f 160/166/23 133/139/23 159/165/23
f 161/167/24 135/141/24 160/166/24
f 162/168/25 137/143/25 161/167/25
f 163/169/26 139/145/26 162/168/26
f 155/161/19 141/147/19 164/170/19
f 165/171/11 106/112/11 166/172/11
f 167/173/11 109/115/11 165/171/11
f 168/174/11 111/117/11 167/173/11
f 169/175/11 113/119/11 168/174/11
f 170/176/11 115/121/11 169/175/11
f 171/177/11 117/123/11 170/176/11
f 172/178/11 119/125/11 171/177/11
f 173/179/11 121/127/11 174/180/11
f 174/180/11 175/181/11 172/178/11
f 164/170/19 176/182/19 163/169/19
f 145/151/19 103/109/19 177/183/19
f 142/148/19 154/160/19 123/129/19
f 122/128/19 178/184/19 103/109/19
f 9/15/7 57/63/7 10/16/7
f 12/18/8 26/32/8 13/19/8
f 14/20/9 13/19/9 15/21/9
f 17/23/10 28/34/10 65/71/10
f 28/34/10 63/69/10 65/71/10
f 65/71/10 18/24/10 17/23/10
f 18/24/10 42/48/10 40/46/10
f 32/38/10 18/24/10 34/40/10
f 179/185/10 180/186/10 181/187/10
f 180/186/10 17/23/10 61/67/10
f 61/67/10 17/23/10 19/25/10
f 182/188/10 181/187/10 180/186/10
f 183/189/10 184/190/10 180/186/10
f 184/190/10 182/188/10 180/186/10
f 61/67/10 185/191/10 180/186/10
f 185/191/10 183/189/10 180/186/10
f 32/38/10 19/25/10 18/24/10
f 36/42/10 34/40/10 18/24/10
f 40/46/10 38/44/10 18/24/10
f 38/44/10 36/42/10 18/24/10
f 16/22/9 15/21/9 20/26/9
f 186/192/11 187/193/11 23/29/11
f 187/193/11 24/30/11 23/29/11
f 24/30/11 188/194/11 189/195/11
f 188/194/11 190/196/11 191/197/11
f 189/195/11 188/194/11 192/198/11
f 191/197/11 193/199/11 188/194/11
f 193/199/11 194/200/11 188/194/11
f 194/200/11 195/201/11 188/194/11
f 195/201/11 192/198/11 188/194/11
f 189/195/11 22/28/11 24/30/11
f 22/28/11 196/202/11 197/203/11
f 23/29/11 22/28/11 197/203/11
f 196/202/11 198/204/11 197/203/11
f 198/204/11 199/205/11 197/203/11
f 199/205/11 200/206/11 197/203/11
f 200/206/11 201/207/11 197/203/11
f 201/207/11 202/208/11 197/203/11
f 25/31/11 15/21/11 13/19/11
f 27/33/10 63/69/10 28/34/10
f 19/25/12 32/38/12 30/36/12
f 32/38/13 34/40/13 33/39/13
f 34/40/14 36/42/14 35/41/14
f 36/42/15 38/44/15 37/43/15
f 38/44/16 40/46/16 39/45/16
f 40/46/17 42/48/17 41/47/17
f 42/48/18 18/24/18 43/49/18
f 44/50/18 102/108/18 45/51/18
f 47/53/17 44/50/17 46/52/17
f 49/55/16 47/53/16 48/54/16
f 51/57/15 49/55/15 50/56/15
f 53/59/14 51/57/14 52/58/14
f 55/61/13 53/59/13 54/60/13
f 9/15/12 55/61/12 56/62/12
f 58/64/8 12/18/8 14/20/8
f 19/25/7 31/37/7 60/66/7
f 29/35/8 58/64/8 59/65/8
f 27/33/9 59/65/9 62/68/9
f 63/69/9 62/68/9 64/70/9
f 66/72/18 102/108/18 44/50/18
f 67/73/17 44/50/17 47/53/17
f 68/74/16 47/53/16 49/55/16
f 69/75/15 49/55/15 51/57/15
f 70/76/14 51/57/14 53/59/14
f 71/77/13 53/59/13 55/61/13
f 72/78/12 55/61/12 9/15/12
f 74/80/9 16/22/9 21/27/9
f 76/82/9 14/20/9 16/22/9
f 73/79/7 9/15/7 11/17/7
f 78/84/9 59/65/9 14/20/9
f 79/85/7 60/66/7 31/37/7
f 78/84/9 101/107/9 62/68/9
f 81/87/9 43/49/9 64/70/9
f 83/89/18 41/47/18 43/49/18
f 84/90/17 39/45/17 41/47/17
f 85/91/16 37/43/16 39/45/16
f 86/92/15 35/41/15 37/43/15
f 87/93/14 33/39/14 35/41/14
f 88/94/13 30/36/13 33/39/13
f 80/86/12 31/37/12 30/36/12
f 89/95/11 15/21/11 25/31/11
f 91/97/11 99/105/11 57/63/11
f 92/98/11 91/97/11 56/62/11
f 93/99/11 92/98/11 54/60/11
f 94/100/11 93/99/11 52/58/11
f 95/101/11 94/100/11 50/56/11
f 96/102/11 95/101/11 48/54/11
f 97/103/11 96/102/11 46/52/11
f 98/104/11 10/16/11 57/63/11
f 100/106/11 97/103/11 45/51/11
f 89/95/11 100/106/11 20/26/11
f 82/88/9 64/70/9 62/68/9
f 75/81/9 21/27/9 102/108/9
f 65/71/9 64/70/9 43/49/9
f 21/27/9 20/26/9 45/51/9
f 103/109/19 178/184/19 104/110/19
f 106/112/20 109/115/20 107/113/20
f 109/115/21 111/117/21 110/116/21
f 111/117/22 113/119/22 112/118/22
f 113/119/23 115/121/27 114/120/23
f 115/121/24 117/123/24 116/122/24
f 117/123/25 119/125/25 118/124/25
f 119/125/26 175/181/26 120/126/26
f 120/126/19 175/181/19 121/127/19
f 123/129/19 154/160/19 124/130/19
f 126/132/20 129/135/20 127/133/20
f 129/135/21 131/137/21 130/136/21
f 131/137/22 133/139/22 132/138/22
f 133/139/23 135/141/23 134/140/23
f 135/141/24 137/143/24 136/142/24
f 137/143/25 139/145/25 138/144/25
f 139/145/26 176/182/26 140/146/26
f 140/146/19 176/182/19 141/147/19
f 143/149/19 153/159/19 105/111/19
f 144/150/19 120/126/19 122/128/19
f 146/152/26 118/124/26 120/126/26
f 147/153/25 116/122/25 118/124/25
f 148/154/24 114/120/24 116/122/24
f 149/155/23 112/118/23 114/120/23
f 150/156/22 110/116/22 112/118/22
f 151/157/21 107/113/21 110/116/21
f 152/158/20 108/114/20 107/113/20
f 153/159/19 177/183/19 103/109/19
f 143/149/19 124/130/19 154/160/19
f 156/162/20 129/135/20 126/132/20
f 158/164/21 131/137/21 129/135/21
f 159/165/22 133/139/22 131/137/22
f 160/166/23 135/141/23 133/139/23
f 161/167/24 137/143/24 135/141/24
f 162/168/25 139/145/25 137/143/25
f 163/169/26 176/182/26 139/145/26
f 155/161/19 154/160/19 141/147/19
f 165/171/11 109/115/11 106/112/11
f 167/173/11 111/117/11 109/115/11
f 168/174/11 113/119/11 111/117/11
f 169/175/11 115/121/11 113/119/11
f 170/176/11 117/123/11 115/121/11
f 171/177/11 119/125/11 117/123/11
f 172/178/11 175/181/11 119/125/11
f 173/179/11 178/184/11 121/127/11
f 174/180/11 121/127/11 175/181/11
f 164/170/19 141/147/19 176/182/19
f 145/151/19 122/128/19 103/109/19
f 142/148/19 141/147/19 154/160/19
f 122/128/19 121/127/19 178/184/19
usemtl blue_emission
f 186/192/11 90/96/11 187/193/11
f 196/202/11 99/105/11 91/97/11
f 198/204/11 91/97/11 92/98/11
f 199/205/11 92/98/11 93/99/11
f 200/206/11 93/99/11 94/100/11
f 201/207/11 94/100/11 95/101/11
f 202/208/11 95/101/11 96/102/11
f 197/203/11 96/102/11 97/103/11
f 189/195/11 99/105/11 22/28/11
f 23/29/11 97/103/11 100/106/11
f 186/192/11 100/106/11 89/95/11
f 203/209/11 166/172/11 204/210/11
f 205/211/11 165/171/11 203/209/11
f 206/212/11 167/173/11 205/211/11
f 207/213/11 168/174/11 206/212/11
f 208/214/11 169/175/11 207/213/11
f 209/215/11 170/176/11 208/214/11
f 210/216/11 171/177/11 209/215/11
f 211/217/11 174/180/11 212/218/11
f 212/218/11 172/178/11 210/216/11
f 186/192/11 89/95/11 90/96/11
f 196/202/11 22/28/11 99/105/11
f 198/204/11 196/202/11 91/97/11
f 199/205/11 198/204/11 92/98/11
f 200/206/11 199/205/11 93/99/11
f 201/207/11 200/206/11 94/100/11
f 202/208/11 201/207/11 95/101/11
f 197/203/11 202/208/11 96/102/11
f 189/195/11 98/104/11 99/105/11
f 23/29/11 197/203/11 97/103/11
f 186/192/11 23/29/11 100/106/11
f 203/209/11 165/171/11 166/172/11
f 205/211/11 167/173/11 165/171/11
f 206/212/11 168/174/11 167/173/11
f 207/213/11 169/175/11 168/174/11
f 208/214/11 170/176/11 169/175/11
f 209/215/11 171/177/11 170/176/11
f 210/216/11 172/178/11 171/177/11
f 211/217/11 173/179/11 174/180/11
f 212/218/11 174/180/11 172/178/11
usemtl orange_emission
f 101/107/9 75/81/9 82/88/9
f 78/84/9 74/80/9 101/107/9
f 80/86/7 77/83/7 79/85/7
f 83/89/18 66/72/18 67/73/18
f 84/90/17 67/73/17 68/74/17
f 85/91/16 68/74/16 69/75/16
f 86/92/15 69/75/15 70/76/15
f 87/93/14 70/76/14 71/77/14
f 88/94/13 71/77/13 72/78/13
f 80/86/12 72/78/12 73/79/12
f 82/88/9 66/72/9 81/87/9
f 163/169/19 145/151/19 164/170/19
f 146/152/26 163/169/26 162/168/26
f 147/153/25 162/168/25 161/167/25
f 148/154/24 161/167/24 160/166/24
f 149/155/23 160/166/23 159/165/23
f 150/156/22 159/165/22 158/164/22
f 151/157/21 158/164/21 156/162/21
f 152/158/20 156/162/20 157/163/20
f 155/161/19 153/159/19 143/149/19
f 164/170/19 177/183/19 155/161/19
f 101/107/9 74/80/9 75/81/9
f 78/84/9 76/82/9 74/80/9
f 80/86/7 73/79/7 77/83/7
f 83/89/18 81/87/18 66/72/18
f 84/90/17 83/89/17 67/73/17
f 85/91/16 84/90/16 68/74/16
f 86/92/15 85/91/15 69/75/15
f 87/93/14 86/92/14 70/76/14
f 88/94/13 87/93/13 71/77/13
f 80/86/12 88/94/12 72/78/12
f 82/88/9 75/81/9 66/72/9
f 163/169/19 144/150/19 145/151/19
f 146/152/26 144/150/26 163/169/26
f 147/153/25 146/152/25 162/168/25
f 148/154/24 147/153/24 161/167/24
f 149/155/23 148/154/23 160/166/23
f 150/156/22 149/155/22 159/165/22
f 151/157/21 150/156/21 158/164/21
f 152/158/20 151/157/20 156/162/20
f 155/161/19 177/183/19 153/159/19
f 164/170/19 145/151/19 177/183/19
l 242 243
l 216 229
l 234 235
l 233 244
l 243 244
l 241 242
l 240 241
l 239 240
l 238 239
l 237 238
l 236 237
l 235 236
l 222 234
l 217 233
l 230 232
l 231 221
l 220 232
l 215 218
l 230 231
l 229 228
l 228 227
l 227 226
l 226 225
l 225 224
l 224 223
l 223 219
l 221 222
l 219 220
l 218 213
l 214 217
l 215 216
l 213 214
