# Blender v2.83.0 OBJ File: 'Studio2TA.blend'
# www.blender.org
mtllib cameraStudio2.mtl
o 2DBox.001
v -26.641352 11.141720 -4.927050
v -26.641352 4.033225 -4.927051
v -26.698885 4.033224 3.962156
v -26.698885 11.141718 3.962157
v -25.852339 11.141720 -4.921944
v -25.909876 11.141718 3.967264
v -25.909876 4.033224 3.967263
v -25.852341 4.033225 -4.921944
vt 0.000500 0.000500
vt 0.000500 0.999500
vt 0.999500 0.999500
vt 0.999500 0.000500
vt 0.000500 0.000500
vt 0.999500 0.000500
vt 0.999500 0.999500
vt 0.000500 0.999500
vn -1.0000 0.0000 -0.0065
vn 1.0000 0.0000 0.0065
vn -0.0000 1.0000 0.0000
vn -0.0065 -0.0000 1.0000
vn 0.0000 -1.0000 -0.0000
vn 0.0065 0.0000 -1.0000
usemtl 01___Default.001
s 1
f 1/1/1 2/2/1 3/3/1
f 3/3/1 4/4/1 1/1/1
f 5/5/2 6/6/2 7/7/2
f 7/7/2 8/8/2 5/5/2
f 1/1/3 4/4/3 6/6/3
f 6/6/3 5/5/3 1/1/3
f 4/4/4 3/3/4 7/7/4
f 7/7/4 6/6/4 4/4/4
f 3/3/5 2/2/5 8/8/5
f 8/8/5 7/7/5 3/3/5
f 2/2/6 1/1/6 5/5/6
f 5/5/6 8/8/6 2/2/6
