# Blender v2.83.0 OBJ File: 'Studio1TA.blend'
# www.blender.org
mtllib cameraStudio1.mtl
o 2DBox.002
v -20.606812 11.077377 14.806953
v -20.606812 3.968883 14.806952
v -17.833286 3.968882 23.252594
v -17.833286 11.077376 23.252594
v -19.857170 11.077377 14.560774
v -17.083645 11.077376 23.006416
v -17.083645 3.968882 23.006414
v -19.857170 3.968883 14.560773
vt 0.000500 0.000500
vt 0.000500 0.999500
vt 0.999500 0.999500
vt 0.999500 0.000500
vt 0.000500 0.000500
vt 0.999500 0.000500
vt 0.999500 0.999500
vt 0.000500 0.999500
vn -0.9501 0.0000 0.3120
vn 0.9501 -0.0000 -0.3120
vn 0.0000 1.0000 -0.0000
vn 0.3120 -0.0000 0.9501
vn -0.0000 -1.0000 0.0000
vn -0.3120 0.0000 -0.9501
usemtl 01___Default.002
s 1
f 1/1/1 2/2/1 3/3/1
f 3/3/1 4/4/1 1/1/1
f 5/5/2 6/6/2 7/7/2
f 7/7/2 8/8/2 5/5/2
f 1/1/3 4/4/3 6/6/3
f 6/6/3 5/5/3 1/1/3
f 4/4/4 3/3/4 7/7/4
f 7/7/4 6/6/4 4/4/4
f 3/3/5 2/2/5 8/8/5
f 8/8/5 7/7/5 3/3/5
f 2/2/6 1/1/6 5/5/6
f 5/5/6 8/8/6 2/2/6
