# Blender v2.83.0 OBJ File: 'Studio1TA.blend'
# www.blender.org
mtllib mejaStudio1.mtl
o 2DBox
v -19.719906 5.556796 12.814309
v -19.719908 1.104600 12.814308
v -16.176857 1.104599 24.231903
v -16.176857 5.556794 24.231903
v -18.233437 5.556796 12.353035
v -14.690387 5.556795 23.770628
v -14.690388 1.104599 23.770626
v -18.233437 1.104600 12.353034
vt 0.000500 0.000500
vt 0.000500 0.999500
vt 0.999500 0.999500
vt 0.999500 0.000500
vt 0.000500 0.000500
vt 0.999500 0.000500
vt 0.999500 0.999500
vt 0.000500 0.999500
vn -0.9551 0.0000 0.2964
vn 0.9551 0.0000 -0.2964
vn 0.0000 1.0000 0.0000
vn 0.2964 -0.0000 0.9551
vn -0.0000 -1.0000 -0.0000
vn -0.2964 0.0000 -0.9551
usemtl 01___Default
s 1
f 1/1/1 2/2/1 3/3/1
f 3/3/1 4/4/1 1/1/1
f 5/5/2 6/6/2 7/7/2
f 7/7/2 8/8/2 5/5/2
f 1/1/3 4/4/3 6/6/3
f 6/6/3 5/5/3 1/1/3
f 4/4/4 3/3/4 7/7/4
f 7/7/4 6/6/4 4/4/4
f 3/3/5 2/2/5 8/8/5
f 8/8/5 7/7/5 3/3/5
f 2/2/6 1/1/6 5/5/6
f 5/5/6 8/8/6 2/2/6
