# Blender v2.83.0 OBJ File: 'Studio2TA.blend'
# www.blender.org
mtllib papanStudio2.mtl
o 2DBox.002
v -6.732162 24.659199 -35.508331
v -6.732164 5.758388 -35.508335
v -27.355368 5.758382 -12.124104
v -27.355366 24.659195 -12.124099
v -5.931872 24.659199 -34.804871
v -26.555077 24.659195 -11.420642
v -26.555077 5.758382 -11.420647
v -5.931874 5.758388 -34.804878
v -27.704323 24.844000 9.504360
v -27.704323 5.718866 9.504358
v -8.867313 5.718861 34.350006
v -8.867313 24.843996 34.350006
v -26.856312 24.843998 8.859230
v -8.019304 24.843996 33.704880
v -8.019306 5.718861 33.704872
v -26.856314 5.718866 8.859228
vt 0.000500 0.000500
vt 0.000500 0.999500
vt 0.999500 0.999500
vt 0.999500 0.000500
vt 0.000500 0.000500
vt 0.999500 0.000500
vt 0.999500 0.999500
vt 0.000500 0.999500
vt 0.000500 0.000500
vt 0.000500 0.999500
vt 0.999500 0.999500
vt 0.999500 0.000500
vt 0.000500 0.000500
vt 0.999500 0.000500
vt 0.999500 0.999500
vt 0.000500 0.999500
vn -0.7500 0.0000 -0.6614
vn 0.7500 -0.0000 0.6614
vn -0.0000 1.0000 -0.0000
vn -0.6602 -0.0000 0.7511
vn 0.0000 -1.0000 -0.0000
vn 0.6602 0.0000 -0.7511
vn -0.7969 -0.0000 0.6042
vn 0.7969 0.0000 -0.6042
vn 0.6055 -0.0000 0.7959
vn -0.6055 0.0000 -0.7959
usemtl 01___Default.014
s 1
f 1/1/1 2/2/1 3/3/1
f 3/3/1 4/4/1 1/1/1
f 5/5/2 6/6/2 7/7/2
f 7/7/2 8/8/2 5/5/2
f 1/1/3 4/4/3 6/6/3
f 6/6/3 5/5/3 1/1/3
f 4/4/4 3/3/4 7/7/4
f 7/7/4 6/6/4 4/4/4
f 3/3/5 2/2/5 8/8/5
f 8/8/5 7/7/5 3/3/5
f 2/2/6 1/1/6 5/5/6
f 5/5/6 8/8/6 2/2/6
usemtl 01___Default.006
f 9/9/7 10/10/7 11/11/7
f 11/11/7 12/12/7 9/9/7
f 13/13/8 14/14/8 15/15/8
f 15/15/8 16/16/8 13/13/8
f 9/9/3 12/12/3 14/14/3
f 14/14/3 13/13/3 9/9/3
f 12/12/9 11/11/9 15/15/9
f 15/15/9 14/14/9 12/12/9
f 11/11/5 10/10/5 16/16/5
f 16/16/5 15/15/5 11/11/5
f 10/10/10 9/9/10 13/13/10
f 13/13/10 16/16/10 10/10/10
